<?xml version="1.0" encoding="UTF-8" standalone="no"?>
<!-- Created with Inkscape (http://www.inkscape.org/) -->
<svg
   xmlns:dc="http://purl.org/dc/elements/1.1/"
   xmlns:cc="http://creativecommons.org/ns#"
   xmlns:rdf="http://www.w3.org/1999/02/22-rdf-syntax-ns#"
   xmlns:svg="http://www.w3.org/2000/svg"
   xmlns="http://www.w3.org/2000/svg"
   xmlns:sodipodi="http://sodipodi.sourceforge.net/DTD/sodipodi-0.dtd"
   xmlns:inkscape="http://www.inkscape.org/namespaces/inkscape"
   width="744.09448819"
   height="1052.3622047"
   id="svg2"
   sodipodi:version="0.32"
   inkscape:version="0.46"
   sodipodi:docname="drawing.svg"
   inkscape:output_extension="org.inkscape.output.svg.inkscape">
  <defs
     id="defs4">
    <inkscape:perspective
       sodipodi:type="inkscape:persp3d"
       inkscape:vp_x="0 : 526.18109 : 1"
       inkscape:vp_y="0 : 1000 : 0"
       inkscape:vp_z="744.09448 : 526.18109 : 1"
       inkscape:persp3d-origin="372.04724 : 350.78739 : 1"
       id="perspective10" />
  </defs>
  <sodipodi:namedview
     id="base"
     pagecolor="#ffffff"
     bordercolor="#666666"
     borderopacity="1.0"
     gridtolerance="10000"
     guidetolerance="10"
     objecttolerance="10"
     inkscape:pageopacity="0.0"
     inkscape:pageshadow="2"
     inkscape:zoom="1.4142136"
     inkscape:cx="343.87988"
     inkscape:cy="546.43804"
     inkscape:document-units="px"
     inkscape:current-layer="layer1"
     showgrid="true"
     inkscape:window-width="640"
     inkscape:window-height="774"
     inkscape:window-x="233"
     inkscape:window-y="116">
    <inkscape:grid
       type="xygrid"
       id="grid2383" />
  </sodipodi:namedview>
  <metadata
     id="metadata7">
    <rdf:RDF>
      <cc:Work
         rdf:about="">
        <dc:format>image/svg+xml</dc:format>
        <dc:type
           rdf:resource="http://purl.org/dc/dcmitype/StillImage" />
      </cc:Work>
    </rdf:RDF>
  </metadata>
  <g
     inkscape:label="Layer 1"
     inkscape:groupmode="layer"
     id="layer1">
    <path
       style="fill:none;fill-rule:evenodd;stroke:#000000;stroke-width:1px;stroke-linecap:butt;stroke-linejoin:miter;stroke-opacity:1"
       d="M 230,412.36218 L 230,432.36218 L 210,432.36218 L 210,452.36218 L 230,452.36218 L 230,472.36218 L 250,472.36218 L 250,452.36218 L 270,452.36218 L 270,432.36218 L 250,432.36218 L 250,412.36218 L 230,412.36218 z"
       id="path2389" />
    <path
       sodipodi:type="arc"
       style="fill:#ff0000;fill-rule:evenodd;stroke:#000000;stroke-width:1px;stroke-linecap:butt;stroke-linejoin:miter;stroke-opacity:1"
       id="path2395"
       sodipodi:cx="250"
       sodipodi:cy="442.36218"
       sodipodi:rx="30"
       sodipodi:ry="30"
       d="M 280,442.36218 A 30,30 0 1 1 220,442.36218 A 30,30 0 1 1 280,442.36218 z"
       transform="translate(70,0)" />
    <path
       sodipodi:type="arc"
       style="fill:#ffffff;fill-rule:evenodd;stroke:#000000;stroke-width:1px;stroke-linecap:butt;stroke-linejoin:miter;stroke-opacity:1"
       id="path2447"
       sodipodi:cx="320"
       sodipodi:cy="442.36218"
       sodipodi:rx="20"
       sodipodi:ry="20"
       d="M 309.45297,425.36924 A 20,20 0 0 1 336.95545,452.96939"
       sodipodi:start="4.1569088"
       sodipodi:end="6.8422107"
       sodipodi:open="true" />
    <path
       style="fill:none;fill-rule:evenodd;stroke:#000000;stroke-width:1px;stroke-linecap:butt;stroke-linejoin:miter;stroke-opacity:1"
       d="M 303,432.36218 L 330,459.36218"
       id="path2511" />
    <path
       style="fill:none;fill-rule:evenodd;stroke:#000000;stroke-width:1px;stroke-linecap:butt;stroke-linejoin:miter;stroke-opacity:1"
       d="M 310,425.36218 L 337,452.36218"
       id="path2513"
       sodipodi:nodetypes="cc" />
    <path
       sodipodi:type="arc"
       style="fill:#ffffff;fill-rule:evenodd;stroke:#000000;stroke-width:1px;stroke-linecap:butt;stroke-linejoin:miter;stroke-opacity:1"
       id="path2639"
       sodipodi:cx="320"
       sodipodi:cy="442.36218"
       sodipodi:rx="20"
       sodipodi:ry="20"
       d="M 330.59976,459.32228 A 20,20 0 0 1 303.03497,431.77031"
       sodipodi:start="1.0122098"
       sodipodi:end="3.6997139"
       sodipodi:open="true" />
    <path
       style="fill:none;fill-rule:evenodd;stroke:#000000;stroke-width:0.96428567px;stroke-linecap:butt;stroke-linejoin:miter;stroke-opacity:1"
       d="M 330.01786,459.38004 L 303.01786,432.38004"
       id="path2643"
       sodipodi:nodetypes="cc" />
    <path
       style="fill:#008000;stroke:#008000;stroke-width:0.12500000000000000"
       d="M 230.51461,461.76936 L 230.51461,451.76936 L 220.51461,451.76936 L 210.51461,451.76936 L 210.51461,442.33186 L 210.51461,432.89436 L 220.51461,432.89436 L 230.51461,432.89436 L 230.51461,422.89436 L 230.51461,412.89436 L 239.95211,412.89436 L 249.38961,412.89436 L 249.38961,422.89436 L 249.38961,432.89436 L 259.38961,432.89436 L 269.38961,432.89436 L 269.38961,442.33111 L 269.38961,451.76787 L 259.42086,451.79986 L 249.45211,451.83186 L 249.42011,461.80061 L 249.38811,471.76936 L 239.95136,471.76936 L 230.51461,471.76936 L 230.51461,461.76936 z"
       id="path2663" />
    <path
       style="fill:#008000;stroke:#008000;stroke-width:0.125"
       d="M 230.51461,461.75686 L 230.51461,451.75686 L 220.51461,451.75686 L 210.51461,451.75686 L 210.51461,442.31936 L 210.51461,432.88186 L 220.51461,432.88186 L 230.51461,432.88186 L 230.51461,422.88186 L 230.51461,412.88186 L 239.95211,412.88186 L 249.38961,412.88186 L 249.38961,422.88186 L 249.38961,432.88186 L 259.38961,432.88186 L 269.38961,432.88186 L 269.38961,442.29922 L 269.38961,451.71657 L 259.48837,451.80462 C 254.04269,451.85304 249.56059,451.91921 249.52814,451.95166 C 249.4957,451.9841 249.4438,456.45355 249.41281,461.88375 L 249.35647,471.75686 L 239.93553,471.75686 L 230.51461,471.75686 L 230.51461,461.75686 z"
       id="path2665" />
    <path
       style="fill:none;fill-rule:evenodd;stroke:#000000;stroke-width:1px;stroke-linecap:butt;stroke-linejoin:miter;stroke-opacity:1"
       d="M 290,492.36218 L 290,552.36218 L 350,522.36218 L 290,492.36218"
       id="path2671" />
    <path
       style="fill:none;fill-rule:evenodd;stroke:#000000;stroke-width:1px;stroke-linecap:butt;stroke-linejoin:miter;stroke-opacity:1"
       d="M 270,492.36218 L 270,552.36218 L 210,522.36218 L 270,492.36218 z"
       id="path2693" />
    <path
       style="fill:#000080;stroke:#000080;stroke-width:0.25"
       d="M 240.20457,536.83815 L 211.33001,522.3832 L 240.39207,507.85173 L 269.45414,493.32027 L 269.45414,522.32048 C 269.45414,538.2706 269.36977,551.31449 269.26664,551.3069 C 269.16352,551.29932 256.08559,544.78838 240.20457,536.83815 L 240.20457,536.83815 z"
       id="path2695" />
    <path
       style="fill:#000080;stroke:#000080;stroke-width:0.17677669"
       d="M 290.63836,522.35468 L 290.63836,493.36345 L 319.54135,507.81462 C 335.438,515.76276 348.44434,522.30579 348.44434,522.35468 C 348.44434,522.40357 335.438,528.9466 319.54135,536.89474 L 290.63836,551.34592 L 290.63836,522.35468 z"
       id="path2699" />
    <path
       sodipodi:type="arc"
       style="fill:#333333;stroke:#333333"
       id="path2701"
       sodipodi:cx="395"
       sodipodi:cy="437.36218"
       sodipodi:rx="25"
       sodipodi:ry="25"
       d="M 420,437.36218 A 25,25 0 1 1 370,437.36218 A 25,25 0 1 1 420,437.36218 z" />
    <path
       sodipodi:type="arc"
       style="fill:#ff0000;fill-rule:evenodd;stroke:#000000;stroke-width:1px;stroke-linecap:butt;stroke-linejoin:miter;stroke-opacity:1"
       id="path2719"
       sodipodi:cx="395"
       sodipodi:cy="437.36218"
       sodipodi:rx="20"
       sodipodi:ry="20"
       d="M 415,437.36218 A 20,20 0 1 1 375,437.36218 A 20,20 0 1 1 415,437.36218 z" />
    <path
       sodipodi:type="arc"
       style="fill:#ff0000;fill-rule:evenodd;stroke:#000000;stroke-width:1px;stroke-linecap:butt;stroke-linejoin:miter;stroke-opacity:1"
       id="path2721"
       sodipodi:cx="397.5"
       sodipodi:cy="427.36218"
       sodipodi:rx="7.5"
       sodipodi:ry="5"
       d="M 405,427.36218 A 7.5,5 0 1 1 390,427.36218 A 7.5,5 0 1 1 405,427.36218 z" />
    <path
       style="fill:#ffffff;stroke:#ffffff;stroke-width:0.0625"
       d="M 396.40505,431.78003 C 393.90342,431.51926 391.71813,430.33043 390.91373,428.79266 C 390.63166,428.25345 390.55121,427.93328 390.55245,427.35502 C 390.55664,425.41012 392.48824,423.72192 395.42639,423.09525 C 396.3054,422.90777 398.04503,422.86095 398.9841,422.99949 C 401.94894,423.4369 404.16765,425.04505 404.42416,426.94252 C 404.63476,428.50042 403.6196,429.9743 401.6863,430.91754 C 400.1573,431.66351 398.25994,431.97338 396.40505,431.78003 L 396.40505,431.78003 z"
       id="path2795" />
    <path
       style="fill:#ffffff;stroke:#ffffff;stroke-width:0.125"
       d="M 392.24549,456.60881 C 386.70401,455.70262 382.29466,452.99009 379.09875,448.52127 C 377.89989,446.84491 376.70959,444.28958 376.18554,442.26721 C 375.37972,439.15744 375.40801,435.24586 376.25824,432.21582 C 378.01501,425.95507 382.67594,421.03153 388.82789,418.93798 C 392.63538,417.64226 397.2271,417.61758 401.00444,418.87254 C 407.43261,421.0082 412.26728,426.21771 413.86422,432.72939 C 414.62698,435.83962 414.58184,439.43445 413.74155,442.49733 C 412.03775,448.70775 407.27525,453.74587 401.18786,455.77755 C 399.19674,456.44209 397.77246,456.67918 395.44194,456.73402 C 393.98969,456.76819 392.97773,456.72855 392.24549,456.60881 L 392.24549,456.60881 z M 399.94194,432.61467 C 401.72083,432.22993 402.97481,431.58395 404.07443,430.48584 C 405.16512,429.39664 405.44256,428.76018 405.43945,427.35439 C 405.43632,425.93575 405.15498,425.29973 404.04444,424.20074 C 402.48773,422.6602 400.28133,421.87586 397.50444,421.87586 C 394.69181,421.87586 392.53733,422.64516 390.94562,424.21782 C 389.93874,425.21266 389.58401,425.94993 389.5267,427.16689 C 389.46195,428.54207 389.79909,429.36072 390.868,430.42388 C 392.24357,431.79204 393.818,432.49117 396.31694,432.84351 C 396.98888,432.93825 399.04637,432.80837 399.94194,432.61467 L 399.94194,432.61467 z"
       id="path2803" />
    <path
       style="fill:#ffffff;stroke:#ffffff;stroke-width:0.125"
       d="M 393.25444,456.74543 C 393.22006,456.70962 392.88256,456.64898 392.50444,456.61066 C 391.59836,456.51885 390.20542,456.21857 389.50444,455.96393 C 389.19506,455.85155 388.81585,455.73491 388.66174,455.70474 C 388.50764,455.67457 387.88631,455.43508 387.28101,455.17255 C 382.75258,453.20846 379.20668,449.65924 377.20381,445.0859 C 376.61644,443.74471 376.05402,441.99953 375.9413,441.16836 C 375.90763,440.92005 375.83835,440.43564 375.78734,440.09189 C 375.66339,439.25644 375.67126,435.42195 375.79902,434.40793 C 376.43391,429.36881 379.67726,424.28337 384.18604,421.25747 C 385.84314,420.14537 388.28197,418.99085 389.53704,418.72435 C 389.69098,418.69166 390.12631,418.58028 390.50444,418.47683 C 392.60819,417.90126 396.63247,417.80968 398.72391,418.28978 C 399.05007,418.36466 399.45362,418.45213 399.62068,418.48417 C 399.78773,418.51622 399.97034,418.57081 400.02646,418.6055 C 400.08258,418.64018 400.22714,418.69079 400.34772,418.71795 C 400.46829,418.74512 400.68039,418.79243 400.81906,418.82308 C 401.39482,418.95035 403.13989,419.69463 404.16113,420.24847 C 408.15716,422.41564 411.3683,425.9738 412.98814,430.02939 C 413.43266,431.14233 413.9427,432.8687 414.05912,433.65439 C 414.10496,433.96376 414.18096,434.47001 414.22801,434.77939 C 414.34037,435.51818 414.33825,439.30986 414.22508,440.02939 C 414.17642,440.33876 414.10959,440.77432 414.07657,440.9973 C 413.76382,443.10889 412.58742,445.98714 411.17188,448.10402 C 408.70302,451.7961 404.93637,454.62602 400.81501,455.88521 C 399.49737,456.28779 399.07594,456.37888 397.56694,456.5873 C 396.80919,456.69195 393.32572,456.81968 393.25444,456.74543 z M 399.44194,432.70776 C 399.79065,432.64463 400.4488,432.49793 400.87368,432.38864 C 400.97364,432.36292 401.54164,432.10302 402.13591,431.81108 C 403.39703,431.19153 404.58623,430.10302 405.09167,429.10558 C 405.34962,428.59653 405.41556,428.28185 405.42169,427.53065 C 405.4259,427.01433 405.393,426.4332 405.34856,426.23924 C 405.10011,425.15482 403.61615,423.61143 402.10312,422.86382 C 401.58093,422.60581 401.03124,422.37112 400.88158,422.3423 C 400.73192,422.31348 400.50595,422.25704 400.37944,422.21689 C 399.22167,421.84943 396.47054,421.7729 395.25444,422.07433 C 395.08256,422.11693 394.80131,422.17495 394.62944,422.20327 C 392.94157,422.48135 390.49769,424.2901 389.85903,425.73391 C 389.3489,426.88715 389.4493,428.42093 390.10293,429.45978 C 390.84082,430.63255 392.47474,431.81322 394.06694,432.32417 C 395.61812,432.82197 397.90831,432.98541 399.44194,432.70776 L 399.44194,432.70776 z"
       id="path2805" />
    <path
       style="fill:#00ffff;stroke:#00ffff"
       d="M 392.59113,456.69202 C 385.67882,455.69398 380.19025,451.65725 377.32129,445.46138 C 376.06651,442.75154 375.58919,440.49094 375.60124,437.31531 C 375.614,433.95444 376.13429,431.62149 377.47926,428.89448 C 380.38398,423.00494 385.94469,418.95478 392.30988,418.09257 C 393.35533,417.95096 395.83692,417.90198 396.93488,418.00128 C 401.35175,418.40077 405.52354,420.39186 408.78099,423.65513 C 411.19618,426.07463 412.81325,428.83702 413.7408,432.12781 C 414.73642,435.66013 414.65616,439.90987 413.52915,443.33474 C 412.81235,445.51303 411.60182,447.76157 410.20849,449.50281 C 409.64155,450.21131 408.23338,451.647 407.49738,452.26689 C 405.46957,453.97481 403.13749,455.23518 400.59333,455.99818 C 398.94001,456.49401 397.84781,456.66291 395.71613,456.75239 C 393.86449,456.83011 393.49861,456.82304 392.59113,456.69202 L 392.59113,456.69202 z M 398.62238,432.7492 C 400.55539,432.57255 402.16692,431.94872 403.54632,430.84313 C 404.48919,430.08742 405.15432,429.14129 405.31245,428.33084 C 405.43015,427.72755 405.36201,426.37641 405.19147,425.93198 C 405.00054,425.43445 404.53484,424.80038 403.95255,424.24515 C 402.73251,423.0818 401.38729,422.41995 399.55988,422.08392 C 399.09805,421.999 398.6259,421.97487 397.43488,421.97533 C 396.00926,421.97587 395.84908,421.98756 395.11296,422.14472 C 393.76408,422.4327 392.88327,422.81851 391.89177,423.55568 C 390.51325,424.58059 389.85323,425.48661 389.64443,426.64062 C 389.42852,427.83388 389.73823,429.00479 390.51921,429.94794 C 391.16168,430.72379 392.36693,431.59041 393.41754,432.03191 C 394.12523,432.32931 395.17182,432.59338 395.99892,432.68324 C 396.35901,432.72236 396.738,432.76386 396.84113,432.77547 C 397.25221,432.82175 397.93936,432.81162 398.62238,432.7492 L 398.62238,432.7492 z"
       id="path2807" />
    <path
       style="fill:#ffffff;stroke:#ffffff;stroke-width:0.0625"
       d="M 396.12238,431.74456 C 395.96769,431.71373 395.75513,431.67682 395.65002,431.66255 C 395.36998,431.62453 394.43353,431.38055 394.21613,431.28896 C 394.113,431.24552 393.8758,431.14953 393.68901,431.07566 C 392.96909,430.79095 392.30587,430.35659 391.71689,429.78406 C 391.22691,429.30777 391.0963,429.13607 390.86468,428.66377 C 390.59135,428.10644 390.59113,428.10542 390.59205,427.41377 C 390.59316,426.57933 390.68865,426.25703 391.13053,425.59638 C 391.70633,424.73547 392.59288,424.08508 393.93624,423.53803 C 394.30402,423.38826 395.1543,423.14082 395.46613,423.09281 C 396.12472,422.99141 396.4417,422.97294 397.52863,422.97262 C 398.72399,422.97227 399.00703,422.99341 399.7144,423.13588 C 400.57979,423.31017 401.85425,423.83808 402.56636,424.31721 C 403.32687,424.82891 404.15936,425.82298 404.27875,426.36196 C 404.2921,426.42224 404.33182,426.56677 404.36701,426.68313 C 404.47063,427.02576 404.40778,427.98309 404.25554,428.38086 C 403.87353,429.37899 402.98502,430.25838 401.71613,430.89421 C 401.23374,431.13593 400.31416,431.47493 400.01142,431.52264 C 399.90479,431.53945 399.7938,431.56787 399.76479,431.5858 C 399.73577,431.60373 399.57233,431.63719 399.40158,431.66015 C 399.23083,431.68312 399.00675,431.71541 398.90363,431.73192 C 398.53983,431.79017 396.39997,431.79989 396.12238,431.74456 z"
       id="path2809" />
    <path
       style="fill:#ffffff;stroke:#ffffff;stroke-width:0.0625"
       d="M 396.21613,431.77674 C 394.84895,431.57823 393.53721,431.12261 392.59113,430.51762 C 391.91553,430.0856 391.13823,429.2614 390.84604,428.66723 C 390.63176,428.23149 390.60073,428.10944 390.57392,427.59692 C 390.53746,426.89977 390.61978,426.50146 390.91992,425.92294 C 391.67088,424.47545 393.74693,423.28681 396.02491,423.00008 C 396.90844,422.88887 399.00337,422.95516 399.68488,423.1159 C 400.72988,423.36237 401.91889,423.8528 402.58869,424.31363 C 403.40225,424.87337 404.10146,425.74002 404.32,426.45952 C 404.49012,427.01958 404.45942,427.91955 404.25267,428.43369 C 403.65254,429.92607 401.89277,431.13698 399.59113,431.64135 C 399.15495,431.73693 398.73388,431.76903 397.71613,431.78429 C 396.99425,431.79511 396.31925,431.79172 396.21613,431.77674 L 396.21613,431.77674 z"
       id="path2811" />
    <path
       style="fill:none;fill-rule:evenodd;stroke:#000000;stroke-width:1px;stroke-linecap:butt;stroke-linejoin:miter;stroke-opacity:1"
       d="M 413,455.36218 L 425,467.36218 L 420,472.36218 L 407,459.36218"
       id="path2851" />
    <path
       style="fill:#333333;stroke:#333333"
       d="M 413.31301,466.35544 L 406.66136,459.70335 L 406.9926,459.37211 L 407.32383,459.04088 L 413.66655,465.38314 L 420.00926,471.7254 L 422.19674,469.53793 L 424.38421,467.35045 L 418.59522,461.56204 C 415.41128,458.37842 412.79561,455.74177 412.78263,455.70281 C 412.76964,455.66385 412.88981,455.50521 413.04967,455.35027 L 413.34032,455.06856 L 419.48091,461.20962 L 425.62151,467.35069 L 422.79309,470.17911 L 419.96468,473.00753 L 413.31301,466.35544 z M 413.86627,465.49448 C 410.5122,462.14014 407.81129,459.39568 407.86427,459.39568 C 407.91724,459.39568 408.47243,459.05386 409.09802,458.63608 C 410.07338,457.98471 410.85175,457.37832 412.37282,456.08482 L 412.68027,455.82336 L 418.44383,461.58692 L 424.20739,467.35048 L 422.086,469.47188 L 419.96459,471.59328 L 413.86627,465.49448 z"
       id="path2889" />
  </g>
</svg>
